<!-- Icon SVGs -->
<svg xmlns="http://www.w3.org/2000/svg" viewBox="0 0 40 40"><title>Icons</title><symbol id="icon_account" viewBox="0 0 24 26"><title>icon_account</title> <circle class="a" cx="12" cy="7" r="3.5"/> <path class="a" d="M3.5,20.5a9,9,0,0,1,8.5-7,9,9,0,0,1,8.5,7Z"/> </symbol><symbol id="icon_add" viewBox="0 0 24 24"><title>icon_add</title> <line class="a" x1="3" y1="12" x2="21" y2="12"/> <line class="a" x1="12" y1="3" x2="12" y2="21"/> </symbol><symbol id="icon_backward_link" viewBox="0 0 18 24"><title>icon_backward_link</title> <polyline class="a" points="12.69 20.65 3.72 12 12.69 3.36"/> </symbol><symbol id="icon_basket" viewBox="0 0 28 28"><title>icon_basket</title> <polygon class="a" points="22 22.5 6 22.5 3.5 11.5 24.5 11.5 22 22.5"/> <line class="a" x1="14" y1="14" x2="14" y2="20"/> <line class="a" x1="18" y1="14" x2="18" y2="20"/> <line class="a" x1="10" y1="14" x2="10" y2="20"/> <line class="a" x1="14" y1="11.5" x2="20" y2="3"/> </symbol><symbol id="icon_benefits" viewBox="0 0 28 22"><title>icon_benefits</title> <polyline class="a" points="4 12 10 18 23 5"/> </symbol><symbol id="icon_calculators" viewBox="0 0 24 26"><title>icon_calculators</title> <circle class="a" cx="8" cy="15" r="0.5"/> <circle class="a" cx="12" cy="15" r="0.5"/> <circle class="a" cx="16" cy="15" r="0.5"/> <circle class="a" cx="8" cy="19" r="0.5"/> <circle class="a" cx="12" cy="19" r="0.5"/> <circle class="a" cx="16" cy="19" r="0.5"/> <rect class="a" x="3.5" y="3.5" width="17" height="19"/> <rect class="a" x="6.5" y="6.5" width="11" height="4"/> </symbol><symbol id="icon_camera" viewBox="0 0 26 26"><title>icon_camera</title> <circle class="a" cx="13" cy="13.5" r="3.5"/> <polygon class="a" points="3.5 20.5 22.5 20.5 22.5 6.5 16.5 6.5 15.5 3.5 10.5 3.5 9.5 6.5 3.5 6.5 3.5 20.5"/> </symbol><symbol id="icon_clear" viewBox="0 0 28 20"><title>icon_clear</title> <polygon class="a" points="8.26 16.5 3.5 10 8.26 3.5 22.5 3.5 22.5 16.5 8.26 16.5"/> <line class="b" x1="12.7" y1="7.7" x2="17.3" y2="12.3"/> <line class="b" x1="17.3" y1="7.7" x2="12.7" y2="12.3"/> </symbol><symbol id="icon_close" viewBox="0 0 22 22"><title>icon_close</title> <line class="a" x1="4" y1="4" x2="18" y2="18"/> <line class="a" x1="18" y1="4" x2="4" y2="18"/> </symbol><symbol id="icon_comments" viewBox="0 0 28 28"><title>icon_comments</title> <polyline class="a" points="21 15.5 24.5 15.5 24.5 5.5 9.5 5.5 9.5 9"/> <path class="a" d="M7.5,21.5h-4v-10h15v10h-8l-.1.38A3.54,3.54,0,0,1,7.5,24.5Z"/> </symbol><symbol id="icon_contract" viewBox="0 0 24 18"><title>icon_contract</title> <polyline class="a" points="3.35 12.69 12 3.72 20.64 12.69"/> </symbol><symbol id="icon_coupons" viewBox="0 0 28 22"><title>icon_coupons</title> <polyline class="a" points="7 3.5 3.5 3.5 3.5 7"/> <polyline class="a" points="21 3.5 24.5 3.5 24.5 7"/> <polyline class="a" points="21 18.5 24.5 18.5 24.5 15"/> <polyline class="a" points="7 18.5 3.5 18.5 3.5 15"/> <line class="a" x1="9" y1="3.5" x2="13" y2="3.5"/> <line class="a" x1="15" y1="3.5" x2="19" y2="3.5"/> <line class="a" x1="9" y1="18.5" x2="13" y2="18.5"/> <line class="a" x1="15" y1="18.5" x2="19" y2="18.5"/> <line class="a" x1="3.5" y1="9" x2="3.5" y2="13"/> <line class="a" x1="24.5" y1="9" x2="24.5" y2="13"/> <line class="a" x1="6.5" y1="9.5" x2="12.5" y2="9.48"/> <line class="a" x1="9.5" y1="6.51" x2="9.5" y2="12.49"/> </symbol><symbol id="icon_date_picker" viewBox="0 0 26 28"><title>icon_date_picker</title> <polygon class="a" points="22.5 22.45 3.5 22.5 3.5 5.5 22.5 5.5 22.5 22.45"/> <line class="a" x1="4" y1="10.5" x2="22" y2="10.5"/> <line class="a" x1="8.5" y1="3" x2="8.5" y2="8"/> <line class="a" x1="17.5" y1="3" x2="17.5" y2="8"/> </symbol><symbol id="icon_delivery_slot" viewBox="0 0 28 28"><title>icon_delivery_slot</title> <polyline class="a" points="18 17.5 5.5 17.5 5.5 5.5 18.5 5.5 18.5 10"/> <path class="a" d="M18.5,17.5V9.15a10.51,10.51,0,0,1,6,8.35Z"/> <circle class="a" cx="9.5" cy="22.5" r="2"/> <circle class="a" cx="19.5" cy="22.5" r="2"/> </symbol><symbol id="icon_download" viewBox="0 0 24 26"><title>icon_download</title> <line class="a" x1="3" y1="20.5" x2="21" y2="20.5"/> <polyline class="a" points="7 11 12 16 17 11"/> <line class="a" x1="12" y1="16" x2="12" y2="3"/> </symbol><symbol id="icon_email" viewBox="0 0 26 20"><title>icon_email</title> <rect class="a" x="3.5" y="3.5" width="19" height="13"/> <polyline class="a" points="4 4 13 12 22 4"/> </symbol><symbol id="icon_error" viewBox="0 0 24 26"><title>icon_error</title> <path class="a" d="M12,17V3.5a8.77,8.77,0,0,1,6.31,2.11"/> <circle class="a" cx="5.5" cy="11.5" r="2"/> <circle class="a" cx="18.5" cy="11.5" r="2"/> <path class="a" d="M18.74,22.5a14.53,14.53,0,0,0-6.74-2,14.17,14.17,0,0,0-6,1.59c-.26.13-.5.27-.74.41"/> </symbol><symbol id="icon_expand" viewBox="0 0 24 18"><title>icon_expand</title> <polyline class="a" points="20.65 5.31 12 14.28 3.36 5.31"/> </symbol><symbol id="icon_external_link" viewBox="0 0 24 24"><title>icon_external_link</title> <polyline class="a" points="20.5 10 20.5 3.5 14 3.5"/> <line class="a" x1="20.19" y1="3.81" x2="11" y2="13"/> <polyline class="a" points="17.5 13 17.5 20.5 3.5 20.5 3.5 6.5 11 6.5"/> </symbol><symbol id="icon_fast_forward" viewBox="0 0 28 20"><title>icon_fast_forward</title> <polygon class="a" points="5.5 4 13 10 5.5 16 5.5 4"/> <polygon class="a" points="16.5 4 24 10 16.5 16 16.5 4"/> </symbol><symbol id="icon_favourites" viewBox="0 0 26 26"><title>icon_favourites</title> <path class="a" d="M13,22.5c-1.51-.89-9.5-5.95-9.5-11.43C3.5,7.85,5.69,5.5,8.6,5.5a5.1,5.1,0,0,1,4,1.85l.36.36.36-.36a5.1,5.1,0,0,1,4-1.85A5.18,5.18,0,0,1,22.5,11C22.5,16.55,14.51,21.61,13,22.5Z"/> </symbol><symbol id="icon_feedback" viewBox="0 0 26 28"><title>icon_feedback</title> <line class="a" x1="8" y1="10.5" x2="18" y2="10.5"/> <line class="a" x1="8" y1="15.5" x2="18" y2="15.5"/> <path class="a" d="M3.5,5.5v15h5v4a4.3,4.3,0,0,0,4-4h10V5.5Z"/> </symbol><symbol id="icon_forward_link" viewBox="0 0 18 24"><title>icon_forward_link</title> <polyline class="a" points="5.31 3.35 14.28 12 5.31 20.64"/> </symbol><symbol id="icon_grid_view" viewBox="0 0 24 24"><title>icon_grid_view</title> <rect class="a" x="3.5" y="3.5" width="6" height="6"/> <rect class="a" x="14.5" y="3.5" width="6" height="6"/> <rect class="a" x="3.5" y="14.5" width="6" height="6"/> <rect class="a" x="14.5" y="14.5" width="6" height="6"/> </symbol><symbol id="icon_guides" viewBox="0 0 22 28"><title>icon_guides</title> <polyline class="a" points="7 4.5 3.5 4.5 3.5 22.5 18.5 22.5 18.5 4.5 15 4.5"/> <rect class="a" x="7.5" y="3.5" width="7" height="4"/> </symbol><symbol id="icon_help_and_support" viewBox="0 0 28 28"><title>icon_help_and_support</title> <circle class="a" cx="14" cy="14" r="10.5"/> <circle class="a" cx="14" cy="14" r="4.5"/> <line class="a" x1="17" y1="17" x2="21.5" y2="21.5"/> <line class="a" x1="6.5" y1="6.5" x2="11" y2="11"/> <line class="a" x1="21.5" y1="6.5" x2="17" y2="11"/> <line class="a" x1="11" y1="17" x2="6.5" y2="21.5"/> </symbol><symbol id="icon_home" viewBox="0 0 24 28"><title>icon_home</title> <polygon class="a" points="12 3.5 3.5 10.25 3.5 22.5 9.5 22.5 9.5 14.5 14.5 14.5 14.5 22.5 20.5 22.5 20.5 10.25 12 3.5"/> </symbol><symbol id="icon_information" viewBox="0 0 14 28"><title>icon_information</title> <circle class="a" cx="7" cy="5" r="1.5"/> <polyline class="a" points="4 10.5 7 10.5 7 23"/> <line class="a" x1="3" y1="23.5" x2="11" y2="23.5"/> </symbol><symbol id="icon_list_view" viewBox="0 0 26 24"><title>icon_list_view</title> <line class="a" x1="10" y1="5" x2="23" y2="5"/> <line class="a" x1="10" y1="19" x2="23" y2="19"/> <line class="a" x1="10" y1="12" x2="23" y2="12"/> <rect class="a" x="3.5" y="3.5" width="3" height="3"/> <rect class="a" x="3.5" y="10.5" width="3" height="3"/> <rect class="a" x="3.5" y="17.5" width="3" height="3"/> </symbol><symbol id="icon_lists" viewBox="0 0 24 26"><title>icon_lists</title> <line class="a" x1="11" y1="7.5" x2="18" y2="7.5"/> <line class="a" x1="11" y1="18.5" x2="18" y2="18.5"/> <circle class="a" cx="7.5" cy="7.5" r="0.5"/> <circle class="a" cx="7.5" cy="13" r="0.5"/> <circle class="a" cx="7.5" cy="18.5" r="0.5"/> <line class="a" x1="11" y1="13" x2="18" y2="13"/> <rect class="a" x="3.5" y="3.5" width="17" height="19"/> </symbol><symbol id="icon_location" viewBox="0 0 26 26"><title>icon_location</title> <circle class="a" cx="13" cy="13" r="8.5"/> <line class="a" x1="13" y1="3" x2="13" y2="8"/> <line class="a" x1="13" y1="18" x2="13" y2="23"/> <line class="a" x1="23" y1="13" x2="18" y2="13"/> <line class="a" x1="8" y1="13" x2="3" y2="13"/> </symbol><symbol id="icon_maximise" viewBox="0 0 24 24"><title>icon_maximise</title> <polyline class="a" points="3.5 8 3.5 3.5 8 3.5"/> <line class="a" x1="4" y1="4" x2="9" y2="9"/> <polyline class="a" points="20.5 8 20.5 3.5 16 3.5"/> <line class="a" x1="20" y1="4" x2="15" y2="9"/> <polyline class="a" points="3.5 16 3.5 20.5 8 20.5"/> <line class="a" x1="4" y1="20" x2="9" y2="15"/> <polyline class="a" points="20.5 16 20.5 20.5 16 20.5"/> <line class="a" x1="20" y1="20" x2="15" y2="15"/> </symbol><symbol id="icon_menu" viewBox="0 0 22 20"><title>icon_menu</title> <line class="a" x1="3" y1="3.5" x2="19" y2="3.5"/> <line class="a" x1="3" y1="16.5" x2="19" y2="16.5"/> <line class="a" x1="3" y1="10" x2="19" y2="10"/> </symbol><symbol id="icon_microphone" viewBox="0 0 18 28"><title>icon_microphone</title> <line class="a" x1="5" y1="23.5" x2="13" y2="23.5"/> <line class="a" x1="9" y1="23" x2="9" y2="18.5"/> <line class="a" x1="6" y1="9" x2="12" y2="9"/> <line class="a" x1="6" y1="13" x2="12" y2="13"/> <rect class="a" x="3.5" y="3.5" width="11" height="15" rx="5.5" ry="5.5"/> </symbol><symbol id="icon_minimise" viewBox="0 0 24 24"><title>icon_minimise</title> <polyline class="a" points="8.5 4 8.5 8.5 4 8.5"/> <line class="a" x1="8" y1="8" x2="3.5" y2="3.5"/> <polyline class="a" points="15.5 4 15.5 8.5 20 8.5"/> <line class="a" x1="16" y1="8" x2="20.5" y2="3.5"/> <polyline class="a" points="8.5 20 8.5 15.5 4 15.5"/> <line class="a" x1="8" y1="16" x2="3.5" y2="20.5"/> <polyline class="a" points="15.5 20 15.5 15.5 20 15.5"/> <line class="a" x1="16" y1="16" x2="20.5" y2="20.5"/> </symbol><symbol id="icon_mobile" viewBox="0 0 22 30"><title>icon_mobile</title> <rect class="a" x="3.5" y="3.5" width="15" height="23" rx="1.5" ry="1.5"/> <circle class="a" cx="11" cy="22" r="1.5"/> <line class="a" x1="8" y1="6.5" x2="14" y2="6.5"/> </symbol><symbol id="icon_mute" viewBox="0 0 26 24"><title>icon_mute</title> <path class="a" d="M14.5,20.5a8.55,8.55,0,0,1-7.55-4.72l-.14-.28H3.5v-7H6.81l.14-.28A8.55,8.55,0,0,1,14.5,3.5Z"/> <line class="a" x1="18.02" y1="9.7" x2="22.63" y2="14.3"/> <line class="a" x1="22.63" y1="9.7" x2="18.02" y2="14.3"/> </symbol><symbol id="icon_opening_times" viewBox="0 0 26 26"><title>icon_opening_times</title> <circle class="a" cx="13" cy="13" r="9.5"/> <polyline class="a" points="13 6.5 13 13.5 8 13.5"/> </symbol><symbol id="icon_orders" viewBox="0 0 24 28"><title>icon_orders</title> <rect class="a" x="3.5" y="8.5" width="17" height="14"/> <path class="a" d="M7.5,13V8a4.5,4.5,0,0,1,9,0v5"/> </symbol><symbol id="icon_pause" viewBox="0 0 22 20"><title>icon_pause</title> <rect class="a" x="-0.5" y="7.5" width="13" height="5" transform="translate(16 4) rotate(90)"/> <rect class="a" x="9.5" y="7.5" width="13" height="5" transform="translate(26 -6) rotate(90)"/> </symbol><symbol id="icon_play" viewBox="0 0 22 20"><title>icon_play</title> <polygon class="a" points="5.5 3 18 10 5.5 17 5.5 3"/> </symbol><symbol id="icon_points" viewBox="0 0 28 22"><title>icon_points</title> <rect class="a" x="3.5" y="3.5" width="21" height="15" rx="1.51" ry="1.51"/> <line class="a" x1="6.5" y1="9.5" x2="12.5" y2="9.48"/> <line class="a" x1="9.5" y1="6.51" x2="9.5" y2="12.49"/> </symbol><symbol id="icon_print" viewBox="0 0 26 26"><title>icon_print</title> <polyline class="a" points="8.5 7 8.5 3.5 17.5 3.5 17.5 7"/> <rect class="a" x="7.5" y="13.5" width="11" height="9"/> <line class="a" x1="10" y1="16.5" x2="16" y2="16.5"/> <line class="a" x1="10" y1="19.5" x2="16" y2="19.5"/> <path class="a" d="M7,17.5H4.63A1.13,1.13,0,0,1,3.5,16.37V8.63A1.13,1.13,0,0,1,4.63,7.5H21.37A1.13,1.13,0,0,1,22.5,8.63v7.75a1.13,1.13,0,0,1-1.13,1.13H19"/> </symbol><symbol id="icon_question" viewBox="0 0 18 28"><title>icon_question</title> <path class="a" d="M3.5,9A5.56,5.56,0,0,1,9,3.5c3.42,0,5.46,1.91,5.46,4.88a5,5,0,0,1-2.92,4.46,4,4,0,0,0-2.58,4V18H9"/> <circle class="a" cx="9" cy="23" r="1.5"/> </symbol><symbol id="icon_ratings" viewBox="0 0 26 28"><title>icon_ratings</title> <polygon class="a" points="13 19.05 7.46 22.12 8.52 15.61 4 10.97 10.24 10.02 13 4.12 15.76 10.02 22 10.97 17.48 15.61 18.54 22.12 13 19.05"/> </symbol><symbol id="icon_remove" viewBox="0 0 24 8"><title>icon_remove</title> <line class="a" x1="3" y1="4" x2="21" y2="4"/> </symbol><symbol id="icon_rewind" viewBox="0 0 28 20"><title>icon_rewind</title> <polygon class="a" points="15 10 22.5 4 22.5 16 15 10"/> <polygon class="a" points="4 10 11.5 4 11.5 16 4 10"/> </symbol><symbol id="icon_sms" viewBox="0 0 26 28"><title>icon_sms</title> <path class="a" d="M13,4.5A9.49,9.49,0,0,0,6.5,20.92V24.5a4.8,4.8,0,0,0,3.08-1.65A9.5,9.5,0,1,0,13,4.5Z"/> <line class="a" x1="8" y1="11.5" x2="18" y2="11.5"/> <line class="a" x1="8" y1="16.5" x2="18" y2="16.5"/> </symbol><symbol id="icon_scan" viewBox="0 0 28 22"><title>icon_scan</title> <line class="a" x1="7.5" y1="15" x2="7.5" y2="7"/> <line class="a" x1="11.83" y1="8" x2="11.83" y2="14"/> <line class="a" x1="16.17" y1="15" x2="16.17" y2="7"/> <line class="a" x1="20.5" y1="8" x2="20.5" y2="14"/> <polyline class="b" points="8 18.5 3.5 18.5 3.5 3.5 8 3.5"/> <polyline class="b" points="20 3.5 24.5 3.5 24.5 18.5 20 18.5"/> </symbol><symbol id="icon_search_history" viewBox="0 0 28 34"><title>icon_search_history</title> <path class="a" d="M24.5,17A10.5,10.5,0,1,0,14,27.5"/> <line class="a" x1="17" y1="20" x2="21" y2="24"/> <polyline class="a" points="13.5 24.5 16.79 27.5 13.5 30.5"/> <line class="a" x1="14" y1="27.5" x2="17" y2="27.5"/> <circle class="a" cx="14" cy="17" r="4.5"/> </symbol><symbol id="icon_search" viewBox="0 0 26 26"><title>icon_search</title> <circle class="a" cx="10" cy="10" r="6.5"/> <line class="a" x1="14.47" y1="14.47" x2="22.5" y2="22.5"/> </symbol><symbol id="icon_secure" viewBox="0 0 24 28"><title>icon_secure</title> <rect class="a" x="5.5" y="7.5" width="13" height="17" transform="translate(28 4) rotate(90)"/> <path class="a" d="M7.5,9V8a4.5,4.5,0,0,1,9,0V9"/> <circle class="a" cx="12" cy="16" r="2.5"/> </symbol><symbol id="icon_security" viewBox="0 0 24 26"><title>icon_security</title> <path class="a" d="M12,3.5C9,5.9,7,7,3.5,7.5V14c0,4,2.5,6,5.5,7.8l3,1.7,3-1.7C18,20,20.5,18,20.5,14V7.5C17,7,15,5.9,12,3.5Z"/> <polyline class="a" points="8.69 13.69 11 16 16 11"/> </symbol><symbol id="icon_settings" viewBox="0 0 26 26"><title>icon_settings</title> <circle class="a" cx="13" cy="13" r="3.5"/> <path class="a" d="M10.87,22.5A3.57,3.57,0,0,0,9.1,19.73a3.64,3.64,0,0,0-3.3-.16L3.69,15.93A3.61,3.61,0,0,0,5.2,13a3.57,3.57,0,0,0-1.52-2.92L5.81,6.42a3.65,3.65,0,0,0,1.51.33A3.57,3.57,0,0,0,10.87,3.5h4.25A3.58,3.58,0,0,0,16.9,6.27a3.63,3.63,0,0,0,3.3.16l2.11,3.64A3.61,3.61,0,0,0,20.8,13a3.57,3.57,0,0,0,1.52,2.92L20.2,19.58a3.65,3.65,0,0,0-1.51-.33,3.57,3.57,0,0,0-3.56,3.24Z"/> </symbol><symbol id="icon_share" viewBox="0 0 22 28"><title>icon_share</title> <polyline class="a" points="15.6 8.13 11 3.5 6.4 8.13"/> <line class="a" x1="11" y1="4" x2="11" y2="17.06"/> <polyline class="a" points="7 11.5 3.5 11.5 3.5 23.5 18.5 23.5 18.5 11.5 15 11.5"/> </symbol><symbol id="icon_store_locator" viewBox="0 0 24 28"><title>icon_store_locator</title> <circle class="a" cx="12" cy="12" r="3.5"/> <path class="a" d="M6.15,18.15A7.66,7.66,0,0,1,3.5,12a8.5,8.5,0,1,1,17,0,7.65,7.65,0,0,1-2.63,6.14L12,24Z"/> </symbol><symbol id="icon_success" viewBox="0 0 24 26"><title>icon_success</title> <path class="a" d="M12,17V3.5a8.77,8.77,0,0,1,6.31,2.11"/> <path class="a" d="M3.68,19.39A14.85,14.85,0,0,0,12,22.5a14.86,14.86,0,0,0,8.32-3.11"/> <circle class="a" cx="5.5" cy="11.5" r="2"/> <circle class="a" cx="18.5" cy="11.5" r="2"/> </symbol><symbol id="icon_telephone" viewBox="0 0 26 28"><title>icon_telephone</title> <path class="a" d="M18,11.5h4.5V6.61C20.38,4.91,15.73,3.5,13,3.5S5.62,4.91,3.5,6.61V11.5H8"/> <polygon class="a" points="17 9.5 21.5 18.5 21.5 22.5 4.5 22.5 4.5 18.5 9 9.5 17 9.5"/> <circle class="a" cx="13" cy="16" r="2.5"/> </symbol><symbol id="icon_timed_out_error" viewBox="0 0 22 24"><title>icon_timed_out_error</title> <line class="a" x1="3" y1="3.5" x2="19" y2="3.5"/> <line class="a" x1="3" y1="20.5" x2="19" y2="20.5"/> <g> <path class="a" d="M11,12c-5.76,1.82-5.5,6.22-5.5,6.22V20"/> <path class="a" d="M11,12c5.76-1.82,5.5-6.22,5.5-6.22V4"/> <path class="a" d="M11,12c-5.76-1.82-5.5-6.22-5.5-6.22V4"/> <path class="a" d="M11,12c5.76,1.82,5.5,6.22,5.5,6.22V20"/> </g> </symbol><symbol id="icon_tools" viewBox="0 0 28 28"><title>icon_tools</title> <path class="a" d="M8.24,16.42,3.6,21.07,6.93,24.4l4.64-4.64a8.72,8.72,0,0,1,6-2.22A7.06,7.06,0,0,0,23.81,7.22L19,12,16,9l4.76-4.76a7.06,7.06,0,0,0-10.31,6.27A8.75,8.75,0,0,1,8.24,16.42Z"/> </symbol><symbol id="icon_trolley" viewBox="0 0 30 28"><title>icon_trolley</title> <circle class="a" cx="10.5" cy="22.5" r="2"/> <circle class="a" cx="20.5" cy="22.5" r="2"/> <polyline class="a" points="3 5.5 6 5.5 8.4 17.5 22.6 17.5 24.5 8.5 7 8.5"/> <line class="a" x1="15.5" y1="11" x2="15.5" y2="15"/> <line class="a" x1="19.5" y1="11" x2="19.5" y2="15"/> <line class="a" x1="11.5" y1="11" x2="11.5" y2="15"/> </symbol><symbol id="icon_upload" viewBox="0 0 24 26"><title>icon_upload</title> <line class="a" x1="21" y1="5.5" x2="3" y2="5.5"/> <polyline class="a" points="17 15 12 10 7 15"/> <line class="a" x1="12" y1="10" x2="12" y2="23"/> </symbol><symbol id="icon_volume" viewBox="0 0 26 24"><title>icon_volume</title> <path class="a" d="M14.5,20.5a8.55,8.55,0,0,1-7.55-4.72l-.14-.28H3.5v-7H6.81l.14-.28A8.55,8.55,0,0,1,14.5,3.5Z"/> <path class="a" d="M19.5,17.47a6.49,6.49,0,0,0,0-10.94"/> </symbol><symbol id="icon_vouchers" viewBox="0 0 28 22"><title>icon_vouchers</title> <polygon class="a" points="19 18.5 3.5 18.5 3.5 3.5 24.5 3.5 24.5 13 19 18.5"/> <polyline class="a" points="18.5 18 18.5 12.5 24 12.5"/> <line class="a" x1="6.5" y1="9.5" x2="12.5" y2="9.48"/> <line class="a" x1="9.5" y1="6.51" x2="9.5" y2="12.49"/> </symbol><symbol id="icon_warning" viewBox="0 0 24 30"><title>icon_warning</title> <path class="a" d="M12,19V5.5a8.77,8.77,0,0,1,6.31,2.11"/> <circle class="a" cx="5.5" cy="13.5" r="2"/> <circle class="a" cx="12" cy="24.5" r="2"/> <circle class="a" cx="18.5" cy="13.5" r="2"/> </symbol><symbol id="icon_zoom_in" viewBox="0 0 26 26"><title>icon_zoom_in</title> <circle class="a" cx="10" cy="10" r="6.5"/> <line class="a" x1="14.47" y1="14.47" x2="22.5" y2="22.5"/> <line class="a" x1="7" y1="10" x2="13" y2="10"/> <line class="a" x1="10" y1="7" x2="10" y2="13"/> </symbol><symbol id="icon_zoom_out" viewBox="0 0 26 26"><title>icon_zoom_out</title> <circle class="a" cx="10" cy="10" r="6.5"/> <line class="a" x1="14.47" y1="14.47" x2="22.5" y2="22.5"/> <line class="a" x1="7" y1="10" x2="13" y2="10"/> </symbol></svg>